<mxfile host="Electron" agent="Mozilla/5.0 (Windows NT 10.0; Win64; x64) AppleWebKit/537.36 (KHTML, like Gecko) draw.io/25.0.2 Chrome/128.0.6613.186 Electron/32.2.5 Safari/537.36" version="25.0.2">
  <diagram name="Страница — 1" id="QmWyXAapbR2ApgR4Ca2K">
    <mxGraphModel dx="1706" dy="1163" grid="1" gridSize="10" guides="1" tooltips="1" connect="1" arrows="1" fold="1" page="1" pageScale="1" pageWidth="827" pageHeight="1169" math="0" shadow="0">
      <root>
        <mxCell id="0" />
        <mxCell id="1" parent="0" />
        <mxCell id="vQUheV9bmPKhbQX3nlLI-1" value="UI" style="swimlane;fontStyle=1;align=center;verticalAlign=top;childLayout=stackLayout;horizontal=1;startSize=26;horizontalStack=0;resizeParent=1;resizeParentMax=0;resizeLast=0;collapsible=1;marginBottom=0;whiteSpace=wrap;html=1;" parent="1" vertex="1">
          <mxGeometry x="240" y="120" width="400" height="270" as="geometry">
            <mxRectangle x="640" y="120" width="50" height="30" as="alternateBounds" />
          </mxGeometry>
        </mxCell>
        <mxCell id="vQUheV9bmPKhbQX3nlLI-2" value="&lt;div&gt;- db:Database*&lt;/div&gt;&lt;div&gt;+ colors:enum&lt;/div&gt;&lt;div&gt;+ defaultColor:colors&lt;/div&gt;&lt;div&gt;&lt;br&gt;&lt;/div&gt;" style="text;strokeColor=none;fillColor=none;align=left;verticalAlign=top;spacingLeft=4;spacingRight=4;overflow=hidden;rotatable=0;points=[[0,0.5],[1,0.5]];portConstraint=eastwest;whiteSpace=wrap;html=1;" parent="vQUheV9bmPKhbQX3nlLI-1" vertex="1">
          <mxGeometry y="26" width="400" height="54" as="geometry" />
        </mxCell>
        <mxCell id="vQUheV9bmPKhbQX3nlLI-3" value="" style="line;strokeWidth=1;fillColor=none;align=left;verticalAlign=middle;spacingTop=-1;spacingLeft=3;spacingRight=3;rotatable=0;labelPosition=right;points=[];portConstraint=eastwest;strokeColor=inherit;" parent="vQUheV9bmPKhbQX3nlLI-1" vertex="1">
          <mxGeometry y="80" width="400" height="8" as="geometry" />
        </mxCell>
        <mxCell id="vQUheV9bmPKhbQX3nlLI-4" value="&lt;div&gt;+ setDatabase(db:Database*):void&lt;/div&gt;&lt;div&gt;+ setColor(color:colors):void&lt;/div&gt;&lt;div&gt;+ input(text:string,newLine:bool):T&lt;/div&gt;&lt;div&gt;+ _input(text:string, newLine:bool):string&lt;/div&gt;&lt;div&gt;+ inputRangeInstant(text:string , min:int , max:int , newLine :bool):int&lt;br&gt;+ inputRange(text:string, min:T, max:T, newLine:bool ):T&lt;br&gt;+ print(data:T, newLine:bool ):void&lt;br&gt;+ printColor(string,  newLine:bool):void&lt;br&gt;+ printTable( data:vector&amp;lt;string&amp;gt;, precision:int ,header: bool ):int&lt;br&gt;+ printHeader(data:string, precision:int, fillingChar:char):void&lt;br&gt;+ pressAnyButton():void&lt;br&gt;+ confirm():const bool&lt;br&gt;&lt;/div&gt;" style="text;strokeColor=none;fillColor=none;align=left;verticalAlign=top;spacingLeft=4;spacingRight=4;overflow=hidden;rotatable=0;points=[[0,0.5],[1,0.5]];portConstraint=eastwest;whiteSpace=wrap;html=1;" parent="vQUheV9bmPKhbQX3nlLI-1" vertex="1">
          <mxGeometry y="88" width="400" height="182" as="geometry" />
        </mxCell>
        <mxCell id="vQUheV9bmPKhbQX3nlLI-5" style="edgeStyle=orthogonalEdgeStyle;rounded=0;orthogonalLoop=1;jettySize=auto;html=1;exitX=1;exitY=0.25;exitDx=0;exitDy=0;entryX=0;entryY=0.5;entryDx=0;entryDy=0;endArrow=none;endFill=0;" parent="1" source="vQUheV9bmPKhbQX3nlLI-6" target="vQUheV9bmPKhbQX3nlLI-11" edge="1">
          <mxGeometry relative="1" as="geometry">
            <Array as="points">
              <mxPoint x="720" y="582" />
              <mxPoint x="720" y="458" />
            </Array>
          </mxGeometry>
        </mxCell>
        <mxCell id="vQUheV9bmPKhbQX3nlLI-6" value="Database" style="swimlane;fontStyle=1;align=center;verticalAlign=top;childLayout=stackLayout;horizontal=1;startSize=26;horizontalStack=0;resizeParent=1;resizeParentMax=0;resizeLast=0;collapsible=1;marginBottom=0;whiteSpace=wrap;html=1;" parent="1" vertex="1">
          <mxGeometry x="270" y="450" width="320" height="530" as="geometry" />
        </mxCell>
        <mxCell id="vQUheV9bmPKhbQX3nlLI-7" value="&amp;nbsp;- currentAccount:Account*&lt;div&gt;&amp;nbsp;- accounts:vector&amp;lt;Account*&amp;gt;&lt;/div&gt;&lt;div&gt;&amp;nbsp;- objects:vector&amp;lt;Object*&amp;gt;&lt;/div&gt;&lt;div&gt;&amp;nbsp;- ui:UI*&lt;/div&gt;" style="text;strokeColor=none;fillColor=none;align=left;verticalAlign=top;spacingLeft=4;spacingRight=4;overflow=hidden;rotatable=0;points=[[0,0.5],[1,0.5]];portConstraint=eastwest;whiteSpace=wrap;html=1;" parent="vQUheV9bmPKhbQX3nlLI-6" vertex="1">
          <mxGeometry y="26" width="320" height="64" as="geometry" />
        </mxCell>
        <mxCell id="vQUheV9bmPKhbQX3nlLI-8" value="" style="line;strokeWidth=1;fillColor=none;align=left;verticalAlign=middle;spacingTop=-1;spacingLeft=3;spacingRight=3;rotatable=0;labelPosition=right;points=[];portConstraint=eastwest;strokeColor=inherit;" parent="vQUheV9bmPKhbQX3nlLI-6" vertex="1">
          <mxGeometry y="90" width="320" height="8" as="geometry" />
        </mxCell>
        <mxCell id="vQUheV9bmPKhbQX3nlLI-9" value="&amp;nbsp; - findID(login:string):int&lt;p style=&quot;margin:0px;margin-left:4px;&quot;&gt;&amp;nbsp;- checkPassword(id:int , pasword:string ):const bool&lt;/p&gt;&lt;p style=&quot;margin:0px;margin-left:4px;&quot;&gt;&amp;nbsp;- calculateParticipantRatings():void&lt;/p&gt;&lt;p style=&quot;margin:0px;margin-left:4px;&quot;&gt;&amp;nbsp;+ whoIsNow():const int&lt;/p&gt;&lt;p style=&quot;margin:0px;margin-left:4px;&quot;&gt;&amp;nbsp;+ whoIs(login:string ):const int&lt;br&gt;&lt;/p&gt;&lt;p style=&quot;margin:0px;margin-left:4px;&quot;&gt;&amp;nbsp;+ isLoggedIn():const bool&lt;/p&gt;&lt;p style=&quot;margin:0px;margin-left:4px;&quot;&gt;&amp;nbsp;+ checkLogin(login:string ):const bool&lt;/p&gt;&lt;p style=&quot;margin:0px;margin-left:4px;&quot;&gt;&amp;nbsp;+ getLogin():const string&lt;/p&gt;&lt;p style=&quot;margin:0px;margin-left:4px;&quot;&gt;&amp;nbsp;+ login():void&lt;/p&gt;&lt;p style=&quot;margin:0px;margin-left:4px;&quot;&gt;&amp;nbsp;+ deauthorize():void&lt;br&gt;&amp;nbsp;+ showAccounts():void&lt;br&gt;&amp;nbsp;+ addAccount(type:int ):void&lt;br&gt;&amp;nbsp;+  removeAccount():void&lt;br&gt;&amp;nbsp;+ grantAccess():void&lt;br&gt;&amp;nbsp;+ changePassword():void&lt;br&gt;&amp;nbsp;+ writeAccountsToFile():void&lt;br&gt;&amp;nbsp;+ readAccountsFromFile():void&lt;br&gt;&amp;nbsp;+ showGenericObjectInfo():void&lt;br&gt;&amp;nbsp;+ showDetailObjectInfo():void&lt;br&gt;&amp;nbsp;+ showRateObjectInfo():void&lt;br&gt;&amp;nbsp;+ addObject():void&lt;br&gt;&amp;nbsp;+ removeObject():void&lt;br&gt;&amp;nbsp;+ rateObject():void&lt;br&gt;&amp;nbsp;+ sortObjectRate():void&lt;br&gt;&amp;nbsp;+ sortObjectSquareMeters():void&lt;br&gt;&amp;nbsp;+ sortObjectFinalPrice():void&lt;br&gt;&amp;nbsp;+ sortObjectMetersToMetro() :void&lt;br&gt;&amp;nbsp;+ findObjectName():void&lt;br&gt;&amp;nbsp;+ findObjectMetersToMetro():void&lt;/p&gt;" style="text;strokeColor=none;fillColor=none;align=left;verticalAlign=top;spacingLeft=4;spacingRight=4;overflow=hidden;rotatable=0;points=[[0,0.5],[1,0.5]];portConstraint=eastwest;whiteSpace=wrap;html=1;" parent="vQUheV9bmPKhbQX3nlLI-6" vertex="1">
          <mxGeometry y="98" width="320" height="432" as="geometry" />
        </mxCell>
        <mxCell id="vQUheV9bmPKhbQX3nlLI-10" value="Account" style="swimlane;fontStyle=1;align=center;verticalAlign=top;childLayout=stackLayout;horizontal=1;startSize=26;horizontalStack=0;resizeParent=1;resizeParentMax=0;resizeLast=0;collapsible=1;marginBottom=0;whiteSpace=wrap;html=1;" parent="1" vertex="1">
          <mxGeometry x="790" y="400" width="360" height="120" as="geometry" />
        </mxCell>
        <mxCell id="vQUheV9bmPKhbQX3nlLI-11" value="&lt;div&gt;+ accountType:int&lt;/div&gt;&lt;div&gt;+ password:string&lt;/div&gt;&lt;div&gt;+ login:string&lt;/div&gt;&lt;div&gt;+ access:bool&lt;/div&gt;" style="text;strokeColor=none;fillColor=none;align=left;verticalAlign=top;spacingLeft=4;spacingRight=4;overflow=hidden;rotatable=0;points=[[0,0.5],[1,0.5]];portConstraint=eastwest;whiteSpace=wrap;html=1;" parent="vQUheV9bmPKhbQX3nlLI-10" vertex="1">
          <mxGeometry y="26" width="360" height="64" as="geometry" />
        </mxCell>
        <mxCell id="vQUheV9bmPKhbQX3nlLI-12" value="" style="line;strokeWidth=1;fillColor=none;align=left;verticalAlign=middle;spacingTop=-1;spacingLeft=3;spacingRight=3;rotatable=0;labelPosition=right;points=[];portConstraint=eastwest;strokeColor=inherit;" parent="vQUheV9bmPKhbQX3nlLI-10" vertex="1">
          <mxGeometry y="90" width="360" height="8" as="geometry" />
        </mxCell>
        <mxCell id="vQUheV9bmPKhbQX3nlLI-13" value="+ addToFile():void" style="text;strokeColor=none;fillColor=none;align=left;verticalAlign=top;spacingLeft=4;spacingRight=4;overflow=hidden;rotatable=0;points=[[0,0.5],[1,0.5]];portConstraint=eastwest;whiteSpace=wrap;html=1;" parent="vQUheV9bmPKhbQX3nlLI-10" vertex="1">
          <mxGeometry y="98" width="360" height="22" as="geometry" />
        </mxCell>
        <mxCell id="vQUheV9bmPKhbQX3nlLI-14" value="Object" style="swimlane;fontStyle=1;align=center;verticalAlign=top;childLayout=stackLayout;horizontal=1;startSize=20;horizontalStack=0;resizeParent=1;resizeParentMax=0;resizeLast=0;collapsible=1;marginBottom=0;whiteSpace=wrap;html=1;" parent="1" vertex="1">
          <mxGeometry x="790" y="560" width="360" height="220" as="geometry" />
        </mxCell>
        <mxCell id="vQUheV9bmPKhbQX3nlLI-15" value="&lt;div&gt;+ objectName:string&lt;/div&gt;&lt;div&gt;+ squareMeters:double&lt;/div&gt;&lt;div&gt;+ finalPrice:int&lt;/div&gt;&lt;div&gt;+ metersToMetro:int&lt;/div&gt;&lt;div&gt;+ krimeaSquareMeters:int&lt;/div&gt;&lt;div&gt;+ rating:Rating&lt;br&gt;&lt;/div&gt;&lt;div&gt;&lt;br&gt;&lt;/div&gt;" style="text;strokeColor=none;fillColor=none;align=left;verticalAlign=top;spacingLeft=4;spacingRight=4;overflow=hidden;rotatable=0;points=[[0,0.5],[1,0.5]];portConstraint=eastwest;whiteSpace=wrap;html=1;" parent="vQUheV9bmPKhbQX3nlLI-14" vertex="1">
          <mxGeometry y="20" width="360" height="100" as="geometry" />
        </mxCell>
        <mxCell id="vQUheV9bmPKhbQX3nlLI-16" value="" style="line;strokeWidth=1;fillColor=none;align=left;verticalAlign=middle;spacingTop=-1;spacingLeft=3;spacingRight=3;rotatable=0;labelPosition=right;points=[];portConstraint=eastwest;strokeColor=inherit;" parent="vQUheV9bmPKhbQX3nlLI-14" vertex="1">
          <mxGeometry y="120" width="360" height="8" as="geometry" />
        </mxCell>
        <mxCell id="vQUheV9bmPKhbQX3nlLI-17" value="&lt;div&gt;+ addToFile():void&lt;/div&gt;&lt;div&gt;+ byRate(pt1:const Object* , pt2:const Object* ):bool&lt;br&gt;+ bySquareMeters(pt1:const Object* , pt2:const Object* ):bool&lt;br&gt;+ byFinalPrice( pt1:const Object*, pt2:const Object* ) :bool&lt;br&gt;+ byMetersToMetro(pt1:const Object* , pt2:const Object* ):bool&lt;br&gt;+ calculatePrice():void&lt;br&gt;&lt;/div&gt;" style="text;strokeColor=none;fillColor=none;align=left;verticalAlign=top;spacingLeft=4;spacingRight=4;overflow=hidden;rotatable=0;points=[[0,0.5],[1,0.5]];portConstraint=eastwest;whiteSpace=wrap;html=1;" parent="vQUheV9bmPKhbQX3nlLI-14" vertex="1">
          <mxGeometry y="128" width="360" height="92" as="geometry" />
        </mxCell>
        <mxCell id="vQUheV9bmPKhbQX3nlLI-18" style="edgeStyle=orthogonalEdgeStyle;rounded=0;orthogonalLoop=1;jettySize=auto;html=1;endArrow=none;endFill=0;startArrow=open;startFill=0;" parent="1" source="vQUheV9bmPKhbQX3nlLI-4" edge="1">
          <mxGeometry relative="1" as="geometry">
            <mxPoint x="440" y="451" as="targetPoint" />
            <Array as="points">
              <mxPoint x="440" y="451" />
            </Array>
          </mxGeometry>
        </mxCell>
        <mxCell id="vQUheV9bmPKhbQX3nlLI-19" style="edgeStyle=orthogonalEdgeStyle;rounded=0;orthogonalLoop=1;jettySize=auto;html=1;entryX=1;entryY=0.25;entryDx=0;entryDy=0;endArrow=diamond;endFill=1;strokeWidth=1;endSize=13;" parent="1" source="vQUheV9bmPKhbQX3nlLI-15" target="vQUheV9bmPKhbQX3nlLI-6" edge="1">
          <mxGeometry relative="1" as="geometry">
            <Array as="points">
              <mxPoint x="720" y="680" />
              <mxPoint x="720" y="582" />
            </Array>
          </mxGeometry>
        </mxCell>
        <mxCell id="vQUheV9bmPKhbQX3nlLI-20" value="1" style="text;html=1;align=center;verticalAlign=middle;resizable=0;points=[];autosize=1;strokeColor=none;fillColor=none;" parent="1" vertex="1">
          <mxGeometry x="415" y="388" width="30" height="30" as="geometry" />
        </mxCell>
        <mxCell id="vQUheV9bmPKhbQX3nlLI-21" value="1" style="text;html=1;align=center;verticalAlign=middle;resizable=0;points=[];autosize=1;strokeColor=none;fillColor=none;" parent="1" vertex="1">
          <mxGeometry x="440" y="430" width="30" height="30" as="geometry" />
        </mxCell>
        <mxCell id="vQUheV9bmPKhbQX3nlLI-22" value="0..*" style="text;html=1;align=center;verticalAlign=middle;resizable=0;points=[];autosize=1;strokeColor=none;fillColor=none;" parent="1" vertex="1">
          <mxGeometry x="760" y="430" width="40" height="30" as="geometry" />
        </mxCell>
        <mxCell id="vQUheV9bmPKhbQX3nlLI-23" value="0..*" style="text;html=1;align=center;verticalAlign=middle;resizable=0;points=[];autosize=1;strokeColor=none;fillColor=none;" parent="1" vertex="1">
          <mxGeometry x="760" y="655" width="40" height="30" as="geometry" />
        </mxCell>
        <mxCell id="vQUheV9bmPKhbQX3nlLI-24" value="1" style="text;html=1;align=center;verticalAlign=middle;resizable=0;points=[];autosize=1;strokeColor=none;fillColor=none;" parent="1" vertex="1">
          <mxGeometry x="590" y="585" width="30" height="30" as="geometry" />
        </mxCell>
        <mxCell id="vQUheV9bmPKhbQX3nlLI-25" value="Rating" style="swimlane;fontStyle=1;align=center;verticalAlign=top;childLayout=stackLayout;horizontal=1;startSize=26;horizontalStack=0;resizeParent=1;resizeParentMax=0;resizeLast=0;collapsible=1;marginBottom=0;whiteSpace=wrap;html=1;" parent="1" vertex="1">
          <mxGeometry x="790" y="840" width="360" height="140" as="geometry" />
        </mxCell>
        <mxCell id="vQUheV9bmPKhbQX3nlLI-26" value="&lt;div&gt;+ rate:int&lt;/div&gt;&lt;div&gt;+ rated:vector&amp;lt;string&amp;gt;&lt;/div&gt;+ rating:vector&amp;lt;int&amp;gt;" style="text;strokeColor=none;fillColor=none;align=left;verticalAlign=top;spacingLeft=4;spacingRight=4;overflow=hidden;rotatable=0;points=[[0,0.5],[1,0.5]];portConstraint=eastwest;whiteSpace=wrap;html=1;" parent="vQUheV9bmPKhbQX3nlLI-25" vertex="1">
          <mxGeometry y="26" width="360" height="54" as="geometry" />
        </mxCell>
        <mxCell id="vQUheV9bmPKhbQX3nlLI-27" value="" style="line;strokeWidth=1;fillColor=none;align=left;verticalAlign=middle;spacingTop=-1;spacingLeft=3;spacingRight=3;rotatable=0;labelPosition=right;points=[];portConstraint=eastwest;strokeColor=inherit;" parent="vQUheV9bmPKhbQX3nlLI-25" vertex="1">
          <mxGeometry y="80" width="360" height="8" as="geometry" />
        </mxCell>
        <mxCell id="vQUheV9bmPKhbQX3nlLI-28" value="+ addRating(login:string , rating:int ):void&lt;br&gt;&lt;div&gt;+ calculateRating():void&lt;/div&gt;&lt;div&gt;+ addToFile():void&lt;/div&gt;" style="text;strokeColor=none;fillColor=none;align=left;verticalAlign=top;spacingLeft=4;spacingRight=4;overflow=hidden;rotatable=0;points=[[0,0.5],[1,0.5]];portConstraint=eastwest;whiteSpace=wrap;html=1;" parent="vQUheV9bmPKhbQX3nlLI-25" vertex="1">
          <mxGeometry y="88" width="360" height="52" as="geometry" />
        </mxCell>
        <mxCell id="vQUheV9bmPKhbQX3nlLI-29" style="edgeStyle=orthogonalEdgeStyle;rounded=0;orthogonalLoop=1;jettySize=auto;html=1;endArrow=diamondThin;endFill=1;jumpSize=11;startSize=6;endSize=13;exitX=0.5;exitY=0;exitDx=0;exitDy=0;" parent="1" target="vQUheV9bmPKhbQX3nlLI-14" edge="1" source="vQUheV9bmPKhbQX3nlLI-25">
          <mxGeometry relative="1" as="geometry">
            <mxPoint x="1220" y="625" as="sourcePoint" />
            <mxPoint x="1190" y="670" as="targetPoint" />
            <Array as="points" />
          </mxGeometry>
        </mxCell>
        <mxCell id="vQUheV9bmPKhbQX3nlLI-30" value="1" style="text;html=1;align=center;verticalAlign=middle;resizable=0;points=[];autosize=1;strokeColor=none;fillColor=none;" parent="1" vertex="1">
          <mxGeometry x="945" y="780" width="30" height="30" as="geometry" />
        </mxCell>
        <mxCell id="vQUheV9bmPKhbQX3nlLI-31" value="1" style="text;html=1;align=center;verticalAlign=middle;resizable=0;points=[];autosize=1;strokeColor=none;fillColor=none;" parent="1" vertex="1">
          <mxGeometry x="965" y="810" width="30" height="30" as="geometry" />
        </mxCell>
        <mxCell id="vQUheV9bmPKhbQX3nlLI-33" value="AccountException" style="swimlane;fontStyle=1;align=center;verticalAlign=top;childLayout=stackLayout;horizontal=1;startSize=26;horizontalStack=0;resizeParent=1;resizeParentMax=0;resizeLast=0;collapsible=1;marginBottom=0;whiteSpace=wrap;html=1;" parent="1" vertex="1">
          <mxGeometry x="790" y="120" width="240" height="144" as="geometry" />
        </mxCell>
        <mxCell id="vQUheV9bmPKhbQX3nlLI-34" value="- password:string&lt;div&gt;- login:string&lt;br&gt;&lt;/div&gt;&lt;div&gt;- hint:string&lt;br&gt;&lt;/div&gt;&lt;div&gt;- accountType:int&lt;/div&gt;&lt;div&gt;- exceptionType:AccountExceptionType&lt;/div&gt;" style="text;strokeColor=none;fillColor=none;align=left;verticalAlign=top;spacingLeft=4;spacingRight=4;overflow=hidden;rotatable=0;points=[[0,0.5],[1,0.5]];portConstraint=eastwest;whiteSpace=wrap;html=1;" parent="vQUheV9bmPKhbQX3nlLI-33" vertex="1">
          <mxGeometry y="26" width="240" height="84" as="geometry" />
        </mxCell>
        <mxCell id="vQUheV9bmPKhbQX3nlLI-35" value="" style="line;strokeWidth=1;fillColor=none;align=left;verticalAlign=middle;spacingTop=-1;spacingLeft=3;spacingRight=3;rotatable=0;labelPosition=right;points=[];portConstraint=eastwest;strokeColor=inherit;" parent="vQUheV9bmPKhbQX3nlLI-33" vertex="1">
          <mxGeometry y="110" width="240" height="8" as="geometry" />
        </mxCell>
        <mxCell id="vQUheV9bmPKhbQX3nlLI-36" value="+ what():const char*" style="text;strokeColor=none;fillColor=none;align=left;verticalAlign=top;spacingLeft=4;spacingRight=4;overflow=hidden;rotatable=0;points=[[0,0.5],[1,0.5]];portConstraint=eastwest;whiteSpace=wrap;html=1;" parent="vQUheV9bmPKhbQX3nlLI-33" vertex="1">
          <mxGeometry y="118" width="240" height="26" as="geometry" />
        </mxCell>
      </root>
    </mxGraphModel>
  </diagram>
</mxfile>
